<svg width="72" height="72" viewBox="0 0 72 72" fill="none" xmlns="http://www.w3.org/2000/svg">
<g clip-path="url(#clip0_1953_882)">
<rect x="2" y="2" width="68" height="68" rx="34" fill="#F5F8FF"/>
<path d="M5 71C5 67.8845 5.80184 64.7996 7.35973 61.9213C8.91763 59.043 11.2011 56.4277 14.0797 54.2247C16.9583 52.0218 20.3757 50.2743 24.1368 49.0821C27.8979 47.8898 31.929 47.2762 36 47.2762C40.071 47.2762 44.1021 47.8898 47.8632 49.0821C51.6243 50.2743 55.0417 52.0218 57.9203 54.2247C60.7989 56.4277 63.0824 59.043 64.6403 61.9213C66.1982 64.7996 67 67.8845 67 71L5 71Z" fill="url(#paint0_linear_1953_882)"/>
<path d="M49.7213 31.6286C49.7213 39.1554 43.5781 45.2571 36 45.2571C28.4219 45.2571 22.2787 39.1554 22.2787 31.6286C22.2787 24.1017 28.4219 18 36 18C43.5781 18 49.7213 24.1017 49.7213 31.6286Z" fill="url(#paint1_linear_1953_882)"/>
</g>
<rect x="1.25" y="1.25" width="69.5" height="69.5" rx="34.75" stroke="white" stroke-width="1.5"/>
<defs>
<linearGradient id="paint0_linear_1953_882" x1="36" y1="18" x2="36" y2="71" gradientUnits="userSpaceOnUse">
<stop stop-color="#2670FF"/>
<stop offset="1" stop-color="#F5F8FF"/>
</linearGradient>
<linearGradient id="paint1_linear_1953_882" x1="36" y1="18" x2="36" y2="71" gradientUnits="userSpaceOnUse">
<stop stop-color="#2670FF"/>
<stop offset="1" stop-color="#F5F8FF"/>
</linearGradient>
<clipPath id="clip0_1953_882">
<rect x="2" y="2" width="68" height="68" rx="34" fill="white"/>
</clipPath>
</defs>
</svg>
