<svg width="16" height="17" viewBox="0 0 16 17" fill="none" xmlns="http://www.w3.org/2000/svg">
<g clip-path="url(#clip0_1001_7731)">
<path d="M7.99998 5.16667V3.83333C7.99998 3.1 7.39998 2.5 6.66665 2.5H2.66665C1.93331 2.5 1.33331 3.1 1.33331 3.83333V13.1667C1.33331 13.9 1.93331 14.5 2.66665 14.5H13.3333C14.0666 14.5 14.6666 13.9 14.6666 13.1667V6.5C14.6666 5.76667 14.0666 5.16667 13.3333 5.16667H7.99998ZM3.99998 13.1667H2.66665V11.8333H3.99998V13.1667ZM3.99998 10.5H2.66665V9.16667H3.99998V10.5ZM3.99998 7.83333H2.66665V6.5H3.99998V7.83333ZM3.99998 5.16667H2.66665V3.83333H3.99998V5.16667ZM6.66665 13.1667H5.33331V11.8333H6.66665V13.1667ZM6.66665 10.5H5.33331V9.16667H6.66665V10.5ZM6.66665 7.83333H5.33331V6.5H6.66665V7.83333ZM6.66665 5.16667H5.33331V3.83333H6.66665V5.16667ZM12.6666 13.1667H7.99998V11.8333H9.33331V10.5H7.99998V9.16667H9.33331V7.83333H7.99998V6.5H12.6666C13.0333 6.5 13.3333 6.8 13.3333 7.16667V12.5C13.3333 12.8667 13.0333 13.1667 12.6666 13.1667ZM12 7.83333H10.6666V9.16667H12V7.83333ZM12 10.5H10.6666V11.8333H12V10.5Z" fill="#323232"/>
</g>
<defs>
<clipPath id="clip0_1001_7731">
<rect width="16" height="16" fill="white" transform="translate(0 0.5)"/>
</clipPath>
</defs>
</svg>
