<svg width="44" height="44" viewBox="0 0 34 34" fill="none" xmlns="http://www.w3.org/2000/svg">
<path d="M23.7074 10.3025C23.3174 9.9125 22.6874 9.9125 22.2974 10.3025L17.4074 15.1825L12.5174 10.2925C12.1274 9.9025 11.4974 9.9025 11.1074 10.2925C10.7174 10.6825 10.7174 11.3125 11.1074 11.7025L15.9974 16.5925L11.1074 21.4825C10.7174 21.8725 10.7174 22.5025 11.1074 22.8925C11.4974 23.2825 12.1274 23.2825 12.5174 22.8925L17.4074 18.0025L22.2974 22.8925C22.6874 23.2825 23.3174 23.2825 23.7074 22.8925C24.0974 22.5025 24.0974 21.8725 23.7074 21.4825L18.8174 16.5925L23.7074 11.7025C24.0874 11.3225 24.0874 10.6825 23.7074 10.3025Z" fill="#323232"/>
</svg>
