<svg width="36" height="36" viewBox="0 0 36 36" fill="none" xmlns="http://www.w3.org/2000/svg">
<g clip-path="url(#clip0_1001_8066)">
<path d="M22.2 13.8071C21.94 13.5471 21.52 13.5471 21.26 13.8071L18 17.0605L14.74 13.8005C14.48 13.5405 14.06 13.5405 13.8 13.8005C13.54 14.0605 13.54 14.4805 13.8 14.7405L17.06 18.0005L13.8 21.2605C13.54 21.5205 13.54 21.9405 13.8 22.2005C14.06 22.4605 14.48 22.4605 14.74 22.2005L18 18.9405L21.26 22.2005C21.52 22.4605 21.94 22.4605 22.2 22.2005C22.46 21.9405 22.46 21.5205 22.2 21.2605L18.94 18.0005L22.2 14.7405C22.4533 14.4871 22.4533 14.0605 22.2 13.8071Z" fill="#323232"/>
</g>
<defs>
<clipPath id="clip0_1001_8066">
<rect width="16" height="16" fill="white" transform="translate(10 10)"/>
</clipPath>
</defs>
</svg>
