<svg width="42" height="39" viewBox="0 0 42 39" fill="none" xmlns="http://www.w3.org/2000/svg">
<rect width="41.9865" height="39.0028" rx="12" fill="#FEF0C7"/>
<path fill-rule="evenodd" clip-rule="evenodd" d="M31.5474 24.3026L23.8774 11.5826C23.2471 10.5966 22.1576 10 20.9874 10C19.8172 10 18.7277 10.5966 18.0974 11.5826L10.4274 24.3026C9.87595 25.2219 9.85689 26.3655 10.3774 27.3026C10.9794 28.3578 12.1026 29.0073 13.3174 29.0026H28.6574C29.8639 29.0155 30.9852 28.3824 31.5974 27.3426C32.1335 26.3953 32.1144 25.2318 31.5474 24.3026ZM20.9874 25.0026C20.4351 25.0026 19.9874 24.5549 19.9874 24.0026C19.9874 23.4503 20.4351 23.0026 20.9874 23.0026C21.5397 23.0026 21.9874 23.4503 21.9874 24.0026C21.9874 24.5549 21.5397 25.0026 20.9874 25.0026ZM20.9874 22.0026C21.5397 22.0026 21.9874 21.5549 21.9874 21.0026V17.0026C21.9874 16.4503 21.5397 16.0026 20.9874 16.0026C20.4351 16.0026 19.9874 16.4503 19.9874 17.0026V21.0026C19.9874 21.5549 20.4351 22.0026 20.9874 22.0026Z" fill="#FFC107"/>
</svg>
