<svg width="22" height="27" viewBox="0 0 22 27" fill="none" xmlns="http://www.w3.org/2000/svg">
<path d="M2 24C2 25.65 3.35 27 5 27H17C18.65 27 20 25.65 20 24V9C20 7.35 18.65 6 17 6H5C3.35 6 2 7.35 2 9V24ZM6.5 9H15.5C16.325 9 17 9.675 17 10.5V22.5C17 23.325 16.325 24 15.5 24H6.5C5.675 24 5 23.325 5 22.5V10.5C5 9.675 5.675 9 6.5 9ZM16.25 1.5L15.185 0.435C14.915 0.165 14.525 0 14.135 0H7.865C7.475 0 7.085 0.165 6.815 0.435L5.75 1.5H2C1.175 1.5 0.5 2.175 0.5 3C0.5 3.825 1.175 4.5 2 4.5H20C20.825 4.5 21.5 3.825 21.5 3C21.5 2.175 20.825 1.5 20 1.5H16.25Z" fill="#323232"/>
</svg>
