<svg width="16" height="17" viewBox="0 0 16 17" fill="none" xmlns="http://www.w3.org/2000/svg">
<g clip-path="url(#clip0_1001_7724)">
<path d="M5.99998 8.33301C5.53998 8.33301 5.16665 8.70634 5.16665 9.16634C5.16665 9.62634 5.53998 9.99967 5.99998 9.99967C6.45998 9.99967 6.83331 9.62634 6.83331 9.16634C6.83331 8.70634 6.45998 8.33301 5.99998 8.33301ZM9.99998 8.33301C9.53998 8.33301 9.16665 8.70634 9.16665 9.16634C9.16665 9.62634 9.53998 9.99967 9.99998 9.99967C10.46 9.99967 10.8333 9.62634 10.8333 9.16634C10.8333 8.70634 10.46 8.33301 9.99998 8.33301ZM7.99998 1.83301C4.31998 1.83301 1.33331 4.81967 1.33331 8.49967C1.33331 12.1797 4.31998 15.1663 7.99998 15.1663C11.68 15.1663 14.6666 12.1797 14.6666 8.49967C14.6666 4.81967 11.68 1.83301 7.99998 1.83301ZM7.99998 13.833C5.05998 13.833 2.66665 11.4397 2.66665 8.49967C2.66665 8.30634 2.67998 8.11301 2.69998 7.92634C4.27331 7.22634 5.51998 5.93967 6.17331 4.34634C7.37998 6.05301 9.36665 7.16634 11.6133 7.16634C12.1333 7.16634 12.6333 7.10634 13.1133 6.99301C13.2533 7.46634 13.3333 7.97301 13.3333 8.49967C13.3333 11.4397 10.94 13.833 7.99998 13.833Z" fill="#323232"/>
</g>
<defs>
<clipPath id="clip0_1001_7724">
<rect width="16" height="16" fill="white" transform="translate(0 0.5)"/>
</clipPath>
</defs>
</svg>
