 <svg
                                width="32"
                                height="32"
                                viewBox="0 0 32 32"
                                fill="none"
                                xmlns="http://www.w3.org/2000/svg"
                              >
                                <path
                                  d="M10.6667 22.2222C10.6667 23.2 11.4667 24 12.4445 24H19.5556C20.5334 24 21.3334 23.2 21.3334 22.2222V13.3333C21.3334 12.3556 20.5334 11.5556 19.5556 11.5556H12.4445C11.4667 11.5556 10.6667 12.3556 10.6667 13.3333V22.2222ZM13.3334 13.3333H18.6667C19.1556 13.3333 19.5556 13.7333 19.5556 14.2222V21.3333C19.5556 21.8222 19.1556 22.2222 18.6667 22.2222H13.3334C12.8445 22.2222 12.4445 21.8222 12.4445 21.3333V14.2222C12.4445 13.7333 12.8445 13.3333 13.3334 13.3333ZM19.1112 8.88889L18.4801 8.25778C18.3201 8.09778 18.0889 8 17.8578 8H14.1423C13.9112 8 13.6801 8.09778 13.5201 8.25778L12.8889 8.88889H10.6667C10.1778 8.88889 9.77783 9.28889 9.77783 9.77778C9.77783 10.2667 10.1778 10.6667 10.6667 10.6667H21.3334C21.8223 10.6667 22.2223 10.2667 22.2223 9.77778C22.2223 9.28889 21.8223 8.88889 21.3334 8.88889H19.1112Z"
                                  fill="#323232"
                                />
                              </svg>