<svg width="22" height="22" viewBox="0 0 22 22" fill="none" xmlns="http://www.w3.org/2000/svg">
<path d="M12.2925 11L16.2342 7.0675C16.5936 6.70805 16.5936 6.12528 16.2342 5.76583C15.8747 5.40638 15.2919 5.40638 14.9325 5.76583L11 9.7075L7.0675 5.76583C6.70806 5.40639 6.12528 5.40638 5.76584 5.76583C5.40639 6.12528 5.40639 6.70805 5.76584 7.0675L9.7075 11L5.76584 14.9325C5.5923 15.1046 5.49469 15.3389 5.49469 15.5833C5.49469 15.8278 5.5923 16.062 5.76584 16.2342C5.93796 16.4077 6.17225 16.5053 6.41667 16.5053C6.66109 16.5053 6.89539 16.4077 7.0675 16.2342L11 12.2925L14.9325 16.2342C15.1046 16.4077 15.3389 16.5053 15.5833 16.5053C15.8278 16.5053 16.0621 16.4077 16.2342 16.2342C16.4077 16.062 16.5053 15.8278 16.5053 15.5833C16.5053 15.3389 16.4077 15.1046 16.2342 14.9325L12.2925 11Z" fill="#757575"/>
</svg>
