       <svg
                                width="32"
                                height="32"
                                viewBox="0 0 32 32"
                                fill="none"
                                xmlns="http://www.w3.org/2000/svg"
                              >
                                <path
                                  d="M16 11.5C16.495 11.5 16.9 11.905 16.9 12.4V16C16.9 16.495 16.495 16.9 16 16.9C15.505 16.9 15.1 16.495 15.1 16V12.4C15.1 11.905 15.505 11.5 16 11.5ZM15.991 7C11.023 7 7 11.032 7 16C7 20.968 11.023 25 15.991 25C20.968 25 25 20.968 25 16C25 11.032 20.968 7 15.991 7ZM16 23.2C12.022 23.2 8.8 19.978 8.8 16C8.8 12.022 12.022 8.8 16 8.8C19.978 8.8 23.2 12.022 23.2 16C23.2 19.978 19.978 23.2 16 23.2ZM16.9 20.5H15.1V18.7H16.9V20.5Z"
                                  fill="#323232"
                                />
                              </svg>