<svg width="14" height="11" viewBox="0 0 14 11" fill="none" xmlns="http://www.w3.org/2000/svg">
<path d="M12.3333 0.166992H1.66665C0.933313 0.166992 0.33998 0.766992 0.33998 1.50033L0.333313 9.50033C0.333313 10.2337 0.933313 10.8337 1.66665 10.8337H12.3333C13.0666 10.8337 13.6666 10.2337 13.6666 9.50033V1.50033C13.6666 0.766992 13.0666 0.166992 12.3333 0.166992ZM12.0666 3.00033L7.35331 5.94699C7.13998 6.08033 6.85998 6.08033 6.64665 5.94699L1.93331 3.00033C1.76665 2.89366 1.66665 2.71366 1.66665 2.52033C1.66665 2.07366 2.15331 1.80699 2.53331 2.04033L6.99998 4.83366L11.4666 2.04033C11.8466 1.80699 12.3333 2.07366 12.3333 2.52033C12.3333 2.71366 12.2333 2.89366 12.0666 3.00033Z" fill="#323232"/>
</svg>
