<svg width="12" height="14" viewBox="0 0 12 14" fill="none" xmlns="http://www.w3.org/2000/svg">
<path d="M11.0941 10.6185L10.168 9.69231V6.10256C10.168 3.89846 8.99053 2.05333 6.9372 1.56513V1.07692C6.9372 0.481026 6.45617 0 5.86028 0C5.26438 0 4.78335 0.481026 4.78335 1.07692V1.56513C2.72284 2.05333 1.55258 3.89128 1.55258 6.10256V9.69231L0.62643 10.6185C0.174122 11.0708 0.490019 11.8462 1.12899 11.8462H10.5844C11.2305 11.8462 11.5464 11.0708 11.0941 10.6185ZM8.73207 10.4103H2.98848V6.10256C2.98848 4.32205 4.07258 2.87179 5.86028 2.87179C7.64797 2.87179 8.73207 4.32205 8.73207 6.10256V10.4103ZM5.86028 14C6.65002 14 7.29617 13.3538 7.29617 12.5641H4.42438C4.42438 13.3538 5.06335 14 5.86028 14Z" fill="#474747"/>
</svg>
