<svg width="12" height="13" viewBox="0 0 12 13" fill="none" xmlns="http://www.w3.org/2000/svg">
<path d="M10.82 8.6735L9.12669 8.48017C8.72003 8.4335 8.32003 8.5735 8.03336 8.86017L6.80669 10.0868C4.92003 9.12684 3.37336 7.58684 2.41336 5.6935L3.64669 4.46017C3.93336 4.1735 4.07336 3.7735 4.02669 3.36684L3.83336 1.68684C3.75336 1.0135 3.18669 0.506836 2.50669 0.506836H1.35336C0.600027 0.506836 -0.0266396 1.1335 0.0200271 1.88684C0.37336 7.58017 4.92669 12.1268 10.6134 12.4802C11.3667 12.5268 11.9934 11.9002 11.9934 11.1468V9.9935C12 9.32017 11.4934 8.7535 10.82 8.6735Z" fill="#323232"/>
</svg>
