<svg width="39" height="32" viewBox="0 0 39 32" fill="none" xmlns="http://www.w3.org/2000/svg">
<g filter="url(#filter0_d_1001_8009)">
<rect x="4" width="30.5015" height="24" rx="12" fill="white"/>
<path d="M14 15.1855V16.9588C14 17.1221 14.1283 17.2505 14.2917 17.2505H16.065C16.1408 17.2505 16.2167 17.2213 16.2692 17.163L22.6392 10.7988L20.4517 8.61132L14.0875 14.9755C14.0292 15.0338 14 15.1038 14 15.1855ZM24.3308 9.10715C24.5583 8.87965 24.5583 8.51215 24.3308 8.28465L22.9658 6.91965C22.7383 6.69215 22.3708 6.69215 22.1433 6.91965L21.0758 7.98715L23.2633 10.1746L24.3308 9.10715Z" fill="#323232"/>
</g>
<defs>
<filter id="filter0_d_1001_8009" x="0" y="0" width="38.5015" height="32" filterUnits="userSpaceOnUse" color-interpolation-filters="sRGB">
<feFlood flood-opacity="0" result="BackgroundImageFix"/>
<feColorMatrix in="SourceAlpha" type="matrix" values="0 0 0 0 0 0 0 0 0 0 0 0 0 0 0 0 0 0 127 0" result="hardAlpha"/>
<feMorphology radius="4" operator="erode" in="SourceAlpha" result="effect1_dropShadow_1001_8009"/>
<feOffset dy="4"/>
<feGaussianBlur stdDeviation="4"/>
<feColorMatrix type="matrix" values="0 0 0 0 0.0627451 0 0 0 0 0.0941176 0 0 0 0 0.156863 0 0 0 0.08 0"/>
<feBlend mode="normal" in2="BackgroundImageFix" result="effect1_dropShadow_1001_8009"/>
<feBlend mode="normal" in="SourceGraphic" in2="effect1_dropShadow_1001_8009" result="shape"/>
</filter>
</defs>
</svg>
