<svg width="12" height="14" viewBox="0 0 12 14" fill="none" xmlns="http://www.w3.org/2000/svg">
<path d="M10.6667 2.00033H7.88C7.6 1.22699 6.86667 0.666992 6 0.666992C5.13333 0.666992 4.4 1.22699 4.12 2.00033H1.33333C0.6 2.00033 0 2.60033 0 3.33366V12.667C0 13.4003 0.6 14.0003 1.33333 14.0003H10.6667C11.4 14.0003 12 13.4003 12 12.667V3.33366C12 2.60033 11.4 2.00033 10.6667 2.00033ZM6 2.00033C6.36667 2.00033 6.66667 2.30033 6.66667 2.66699C6.66667 3.03366 6.36667 3.33366 6 3.33366C5.63333 3.33366 5.33333 3.03366 5.33333 2.66699C5.33333 2.30033 5.63333 2.00033 6 2.00033ZM6 4.66699C7.10667 4.66699 8 5.56033 8 6.66699C8 7.77366 7.10667 8.66699 6 8.66699C4.89333 8.66699 4 7.77366 4 6.66699C4 5.56033 4.89333 4.66699 6 4.66699ZM10 12.667H2V11.7337C2 10.4003 4.66667 9.66699 6 9.66699C7.33333 9.66699 10 10.4003 10 11.7337V12.667Z" fill="#323232"/>
</svg>
