<svg width="38" height="29" viewBox="0 0 38 29" fill="none" xmlns="http://www.w3.org/2000/svg">
<path d="M23.1796 0H7.54368C3.91676 0 0.976562 2.93493 0.976562 6.55534V22.1632C0.976562 25.7836 3.91676 28.7186 7.54368 28.7186H23.1796C26.8065 28.7186 29.7467 25.7836 29.7467 22.1632V6.55534C29.7467 2.93493 26.8065 0 23.1796 0Z" fill="url(#paint0_linear_1007_11098)"/>
<path d="M23.0741 0H7.43821C3.81129 0 0.871094 2.93493 0.871094 6.55534V22.1632C0.871094 25.7836 3.81129 28.7186 7.43821 28.7186H23.0741C26.701 28.7186 29.6412 25.7836 29.6412 22.1632V6.55534C29.6412 2.93493 26.701 0 23.0741 0Z" fill="url(#paint1_linear_1007_11098)"/>
<g style="mix-blend-mode:overlay" opacity="0.33">
<path d="M23.0741 0H7.43821C3.81129 0 0.871094 2.93493 0.871094 6.55534V22.1632C0.871094 25.7836 3.81129 28.7186 7.43821 28.7186H23.0741C26.701 28.7186 29.6412 25.7836 29.6412 22.1632V6.55534C29.6412 2.93493 26.701 0 23.0741 0Z" fill="#35404C"/>
</g>
<mask id="mask0_1007_11098" style="mask-type:luminance" maskUnits="userSpaceOnUse" x="0" y="0" width="38" height="29">
<path d="M23.1799 28.7186H7.43821C3.81148 28.7186 0.871094 25.7835 0.871094 22.1632V6.55534C0.871094 2.93511 3.81104 0 7.43821 0H23.1799C26.8066 0 37.9993 4.59513 37.9993 8.21536L29.7466 22.1632C29.7466 25.7835 26.8062 28.7186 23.1795 28.7186H23.1799Z" fill="white"/>
</mask>
<g mask="url(#mask0_1007_11098)">
<path d="M19.9835 7.8437C11.706 18.2291 -5.61035 25.0208 -5.61035 25.0208L1.86508 24.8657C3.61774 24.7984 8.5236 23.5389 10.4416 20.6794C10.4425 20.6781 10.4403 20.6746 10.4416 20.675C13.0343 21.6404 19.7803 22.4063 30.2083 15.4665C34.6206 12.3854 36.7005 9.75352 36.7005 9.75352C36.7005 9.75352 25.2297 11.7203 19.9835 7.84326V7.8437Z" fill="url(#paint2_linear_1007_11098)"/>
<path d="M19.9835 7.8437C11.706 18.2291 -5.61035 25.0208 -5.61035 25.0208L1.86508 24.8657C3.61774 24.7984 8.5236 23.5389 10.4416 20.6794C10.4425 20.6781 10.4403 20.6746 10.4416 20.675C13.0343 21.6404 19.7803 22.4063 30.2083 15.4665C34.6206 12.3854 36.7005 9.75352 36.7005 9.75352C36.7005 9.75352 25.2297 11.7203 19.9835 7.84326V7.8437Z" fill="url(#paint3_radial_1007_11098)"/>
<path d="M19.9835 7.8437C11.706 18.2291 -5.61035 25.0208 -5.61035 25.0208L1.86508 24.8657C3.61774 24.7984 8.5236 23.5389 10.4416 20.6794C10.4425 20.6781 10.4403 20.6746 10.4416 20.675C13.0343 21.6404 19.7803 22.4063 30.2083 15.4665C34.6206 12.3854 36.7005 9.75352 36.7005 9.75352C36.7005 9.75352 25.2297 11.7203 19.9835 7.84326V7.8437Z" fill="url(#paint4_linear_1007_11098)"/>
<path d="M19.6688 7.37463C19.6688 7.37463 19.6583 7.38636 19.6522 7.39288C10.7967 17.0832 -5.77539 23.8223 -5.77539 23.8223L1.75401 23.9313C3.4849 23.9379 8.15487 22.7688 10.5047 19.6951C10.5038 19.6951 10.5042 19.6951 10.5047 19.6946C10.5047 19.6946 10.5042 19.6951 10.5047 19.6951C13.6648 19.9397 18.6107 19.9266 28.8633 12.4125C32.8905 9.35831 35.2137 6.91064 35.2137 6.91064C35.2137 6.91064 26.2716 8.88954 19.6688 7.37463Z" fill="url(#paint5_linear_1007_11098)"/>
<path d="M19.6688 7.37463C19.6688 7.37463 19.6583 7.38636 19.6522 7.39288C10.7967 17.0832 -5.77539 23.8223 -5.77539 23.8223L1.75401 23.9313C3.4849 23.9379 8.15487 22.7688 10.5047 19.6951C10.5038 19.6951 10.5042 19.6951 10.5047 19.6946C10.5047 19.6946 10.5042 19.6951 10.5047 19.6951C13.6648 19.9397 18.6107 19.9266 28.8633 12.4125C32.8905 9.35831 35.2137 6.91064 35.2137 6.91064C35.2137 6.91064 26.2716 8.88954 19.6688 7.37463Z" fill="url(#paint6_linear_1007_11098)"/>
<path d="M19.5194 7.12524C6.92315 17.9447 -6 22.7314 -6 22.7314L3.58584 22.4937L3.8522 22.4455C4.92764 22.2405 8.1457 21.4133 10.4254 19.4122C10.4254 19.4122 11.2802 19.3553 11.2811 19.3549C18.0802 17.7904 26.1336 11.749 26.2511 11.6708C31.0877 8.14445 33.7352 4.73145 33.7352 4.73145C33.7352 4.73145 25.0329 6.94147 19.519 7.12524H19.5194Z" fill="url(#paint7_linear_1007_11098)"/>
<path d="M19.5194 7.12524C6.92315 17.9447 -6 22.7314 -6 22.7314L3.58584 22.4937L3.8522 22.4455C4.92764 22.2405 8.1457 21.4133 10.4254 19.4122C10.4254 19.4122 11.2802 19.3553 11.2811 19.3549C18.0802 17.7904 26.1336 11.749 26.2511 11.6708C31.0877 8.14445 33.7352 4.73145 33.7352 4.73145C33.7352 4.73145 25.0329 6.94147 19.519 7.12524H19.5194Z" fill="url(#paint8_linear_1007_11098)"/>
<path d="M10.3191 19.1012C8.03941 21.1023 4.92755 22.2405 3.85254 22.4456L5.27573 22.1884C12.9657 20.4554 20.7071 15.7134 26.2514 11.6709C26.1335 11.7491 18.0918 17.751 10.3191 19.1012Z" fill="url(#paint9_linear_1007_11098)"/>
<path d="M10.5055 19.6943C8.15531 22.768 3.48621 23.9375 1.75488 23.931L2.25757 23.9384C13.4738 22.6229 22.9852 16.8713 28.8642 12.4121C18.6116 19.9258 13.6653 19.9384 10.5051 19.6943H10.5055Z" fill="url(#paint10_linear_1007_11098)"/>
<path d="M10.5357 20.6838C10.5357 20.6838 10.4783 20.6682 10.4774 20.6695C8.15023 23.4473 3.65348 24.7928 1.90039 24.8602L2.36652 24.8506C15.613 23.8427 24.7419 19.3027 30.2436 15.4609C19.8156 22.4008 13.2189 21.3494 10.5357 20.6838Z" fill="url(#paint11_linear_1007_11098)"/>
</g>
<defs>
<linearGradient id="paint0_linear_1007_11098" x1="22.9254" y1="30.21" x2="0.268697" y2="-17.4394" gradientUnits="userSpaceOnUse">
<stop stop-color="#0065FF"/>
<stop offset="1" stop-color="#C1FFFF"/>
</linearGradient>
<linearGradient id="paint1_linear_1007_11098" x1="22.82" y1="30.21" x2="0.163228" y2="-17.4394" gradientUnits="userSpaceOnUse">
<stop stop-color="#0094FF"/>
<stop offset="1" stop-color="#C1FFFF"/>
</linearGradient>
<linearGradient id="paint2_linear_1007_11098" x1="5.96944" y1="16.8501" x2="50.6704" y2="12.3948" gradientUnits="userSpaceOnUse">
<stop stop-color="#EFEEFF"/>
<stop offset="0.17" stop-color="#E5E9FF"/>
<stop offset="0.44" stop-color="#CCDEFF"/>
<stop offset="0.79" stop-color="#A3CBFF"/>
<stop offset="1" stop-color="#87BFFF"/>
</linearGradient>
<radialGradient id="paint3_radial_1007_11098" cx="0" cy="0" r="1" gradientUnits="userSpaceOnUse" gradientTransform="translate(10.9451 15.5456) rotate(-16.4321) scale(26.3213 10.7755)">
<stop stop-color="#1249FF"/>
<stop offset="1" stop-color="#CCD7F6" stop-opacity="0"/>
</radialGradient>
<linearGradient id="paint4_linear_1007_11098" x1="17.7899" y1="21.1892" x2="20.5628" y2="25.6586" gradientUnits="userSpaceOnUse">
<stop stop-color="white" stop-opacity="0"/>
<stop offset="0.28" stop-color="white" stop-opacity="0.5"/>
</linearGradient>
<linearGradient id="paint5_linear_1007_11098" x1="-1.87587" y1="9.39987" x2="42.8548" y2="19.303" gradientUnits="userSpaceOnUse">
<stop stop-color="#EFEEFF"/>
<stop offset="0.17" stop-color="#E5E9FF"/>
<stop offset="0.44" stop-color="#CCDEFF"/>
<stop offset="0.79" stop-color="#A3CBFF"/>
<stop offset="1" stop-color="#87BFFF"/>
</linearGradient>
<linearGradient id="paint6_linear_1007_11098" x1="16.6989" y1="18.2534" x2="18.8312" y2="20.8527" gradientUnits="userSpaceOnUse">
<stop stop-color="#EFEEFF" stop-opacity="0"/>
<stop offset="0.08" stop-color="#EFEEFF" stop-opacity="0.04"/>
<stop offset="0.23" stop-color="#F1F0FF" stop-opacity="0.14"/>
<stop offset="0.41" stop-color="#F3F3FF" stop-opacity="0.3"/>
<stop offset="0.62" stop-color="#F7F6FF" stop-opacity="0.53"/>
<stop offset="0.86" stop-color="#FBFBFF" stop-opacity="0.81"/>
<stop offset="1" stop-color="white"/>
</linearGradient>
<linearGradient id="paint7_linear_1007_11098" x1="-6.40755" y1="21.638" x2="34.356" y2="6.38599" gradientUnits="userSpaceOnUse">
<stop stop-color="white"/>
<stop offset="0.7" stop-color="#F5FFFF"/>
<stop offset="1" stop-color="#F0FFFF"/>
</linearGradient>
<linearGradient id="paint8_linear_1007_11098" x1="19.4106" y1="18.3511" x2="21.3195" y2="19.9485" gradientUnits="userSpaceOnUse">
<stop stop-color="white" stop-opacity="0"/>
<stop offset="0.08" stop-color="white" stop-opacity="0.04"/>
<stop offset="0.23" stop-color="white" stop-opacity="0.14"/>
<stop offset="0.41" stop-color="white" stop-opacity="0.3"/>
<stop offset="0.62" stop-color="white" stop-opacity="0.53"/>
<stop offset="0.86" stop-color="white" stop-opacity="0.81"/>
<stop offset="1" stop-color="white"/>
</linearGradient>
<linearGradient id="paint9_linear_1007_11098" x1="9.56036" y1="9.14916" x2="23.7444" y2="29.644" gradientUnits="userSpaceOnUse">
<stop stop-color="#EFEEFF"/>
<stop offset="0.08" stop-color="#E5E9FF"/>
<stop offset="0.22" stop-color="#CCDEFF"/>
<stop offset="0.4" stop-color="#A3CBFF"/>
<stop offset="0.5" stop-color="#87BFFF"/>
<stop offset="0.63" stop-color="#87BFFF"/>
</linearGradient>
<linearGradient id="paint10_linear_1007_11098" x1="1.38771" y1="22.7146" x2="29.4295" y2="14.3026" gradientUnits="userSpaceOnUse">
<stop stop-color="#7CAAFF"/>
<stop offset="1" stop-color="#88CAFF"/>
</linearGradient>
<linearGradient id="paint11_linear_1007_11098" x1="15.9034" y1="19.4317" x2="16.632" y2="22.5619" gradientUnits="userSpaceOnUse">
<stop stop-color="#4A98EF"/>
<stop offset="0.24" stop-color="#3D92E9"/>
<stop offset="0.69" stop-color="#1B83D9"/>
<stop offset="1" stop-color="#0077CD"/>
</linearGradient>
</defs>
</svg>
