<svg width="28" height="24" viewBox="0 0 28 24" fill="none" xmlns="http://www.w3.org/2000/svg">
<path d="M14 2.81876L24.6259 21.1777H3.37408L14 2.81876ZM0.932809 19.7666C-0.15377 21.6434 1.20093 24 3.37408 24H24.6259C26.799 24 28.1537 21.6434 27.0672 19.7666L16.4413 1.40761C15.3547 -0.469205 12.6453 -0.469205 11.5587 1.40761L0.932809 19.7666ZM12.5888 9.88858V12.7109C12.5888 13.487 13.2239 14.122 14 14.122C14.7761 14.122 15.4111 13.487 15.4111 12.7109V9.88858C15.4111 9.11245 14.7761 8.47744 14 8.47744C13.2239 8.47744 12.5888 9.11245 12.5888 9.88858ZM12.5888 16.9443H15.4111V19.7666H12.5888V16.9443Z" fill="#323232"/>
</svg>
